<svg xmlns="http://www.w3.org/2000/svg" viewBox="0 0 147.14 90.58"><defs><style>.cls-1{fill:#fff;}.cls-2{fill:#e56d32;}.cls-3,.cls-4{fill:none;stroke:#000;stroke-linecap:round;stroke-linejoin:round;}.cls-3{stroke-width:4px;}.cls-4{stroke-width:5px;}</style></defs><g id="레이어_2" data-name="레이어 2"><g id="레이어_1-2" data-name="레이어 1"><path class="cls-1" d="M42.37,32.41c8.29-7,17.45-13.11,27.7-17.08a63.15,63.15,0,0,1,32.85-3.9,64.65,64.65,0,0,1,20.55,7.32c6.74,3.7,13.07,8.55,17.21,14.93s5.83,14.48,3.19,21.25c-1.7,4.37-5,7.89-8.66,10.87-7.49,6.14-16.52,10.36-25.92,13.33-6.44,2-13.19,3.51-20.07,3.22C80,82,71,78.41,63.2,73.33S48.63,61.68,42.4,54.79C40.73,53,38.89,51,36.46,50.49a7.61,7.61,0,0,0-4.09.49C27.55,52.8,24,57.47,18.76,57.75c-4.71.25-9-3.23-12-7C4.18,47.47,2,43.57,2,39.5c0-6.19,4.78-11,9.48-15,4.13-3.44,9.49-6.88,14.83-5C32.88,21.87,35.86,31.24,42.37,32.41Z"/><path class="cls-1" d="M109.49,10.58c.65-1.71-.32-3.77-1.81-5a14.82,14.82,0,0,0-5.25-2.42c-2.76-.86-5.79-1.71-8.37-.67a25.08,25.08,0,0,0-3.45,2.14C87,6.8,82.42,6.75,78.1,6.51S69.23,6,65.4,7.72,58.87,14.13,60.87,18"/><path class="cls-1" d="M65.46,77.15a18.41,18.41,0,0,1-11.67.34c-3.83-1.26-7.22-4.32-8.24-8.11a13.43,13.43,0,0,1,.67-8"/><path class="cls-1" d="M125.83,75.46c.81,2.32,1.6,4.94.51,7.15A7.32,7.32,0,0,1,124,85.16a17.84,17.84,0,0,1-9.2,3.39,5.87,5.87,0,0,1-3.44-.56c-1.92-1.13-2.32-3.69-2.51-5.91"/><path class="cls-2" d="M133.5,25.45a18.41,18.41,0,0,0-18.27,23.7c1.66,5.53,5.78,9.92,9.76,14.09,2.51,2.64,5.71,5.51,9.28,4.8,2.16-.43,3.84-2.11,5.2-3.84,4.76-6,7.3-14,6.11-21.57S139.72,25.67,133.5,25.45Z"/><path class="cls-2" d="M113.68,18.59c-3.15,9.76-8.39,9.78-10.26,16.67-2.9,10.69,3.29,21.65,10.2,30.31,2.62,3.3,5.44,6.56,6.89,10.52s1.23,8.85-1.75,11.82-9,2.61-10.64-1.26c-1-2.34-.42-5.47-2.38-7.08-1.73-1.42-4.29-.69-6.44,0a44,44,0,0,1-15,1.76C79.77,81,74.46,79.4,73.09,75s1.83-8.46,4.49-12A77.43,77.43,0,0,0,87.93,44.07c1.58-4.19,2.72-9.14.33-12.93-2.12-3.35-6.28-4.63-9.83-6.4s-7.14-5.22-6.24-9.08a8.66,8.66,0,0,1,3.28-4.51C79.94,7.53,85.54,5.67,91,3.87a27.53,27.53,0,0,1,8.26-1.79,9.24,9.24,0,0,1,7.5,3.24c2,2.71,2.18,6.24,4.89,8.26C112.52,14.23,114.28,16.73,113.68,18.59Z"/><path class="cls-2" d="M63,10.24c-.56,6.07,3.11,11.58,5.6,17.14A47.72,47.72,0,0,1,62.84,75.1a7.64,7.64,0,0,1-2.41,2.26,6.27,6.27,0,0,1-3.66.49A12.88,12.88,0,0,1,46,63.87c.45-3.29,2.18-6.24,3.82-9.12,3.65-6.4,7-13.17,7.88-20.49.8-7-.78-14.54,2-21,.56-1.28,1.51-2.64,2.91-2.71S65,12.72,63,10.24Z"/><path class="cls-2" d="M34.76,28c3.65,1.37,5.74,5.52,5.59,9.41s-2.16,7.51-4.66,10.5A32.67,32.67,0,0,1,16.42,59,5.31,5.31,0,0,1,13,58.78a5.76,5.76,0,0,1-2-2.34L5,46.15a14.79,14.79,0,0,1-2.23-5.41c-.43-3.42,1.54-6.63,3.5-9.46,2.23-3.23,4.61-6.45,7.8-8.76s7.31-3.6,11.1-2.56c3.19.88,5.72,3.25,8.1,5.53C35.37,27.49,37.45,29.48,34.76,28Z"/><path class="cls-3" d="M42.37,32.41c8.29-7,17.45-13.11,27.7-17.08a63.15,63.15,0,0,1,32.85-3.9,64.65,64.65,0,0,1,20.55,7.32c6.74,3.7,13.07,8.55,17.21,14.93s5.83,14.48,3.19,21.25c-1.7,4.37-5,7.89-8.66,10.87-7.49,6.14-16.52,10.36-25.92,13.33-6.44,2-13.19,3.51-20.07,3.22C80,82,71,78.41,63.2,73.33S48.63,61.68,42.4,54.79C40.73,53,38.89,51,36.46,50.49a7.61,7.61,0,0,0-4.09.49C27.55,52.8,24,57.47,18.76,57.75c-4.71.25-9-3.23-12-7C4.18,47.47,2,43.57,2,39.5c0-6.19,4.78-11,9.48-15,4.13-3.44,9.49-6.88,14.83-5C32.88,21.87,35.86,31.24,42.37,32.41Z"/><path class="cls-3" d="M109.49,10.58c.65-1.71-.32-3.77-1.81-5a14.82,14.82,0,0,0-5.25-2.42c-2.76-.86-5.79-1.71-8.37-.67a25.08,25.08,0,0,0-3.45,2.14C87,6.8,82.42,6.75,78.1,6.51S69.23,6,65.4,7.72,58.87,14.13,60.87,18"/><path class="cls-3" d="M65.46,77.15a18.41,18.41,0,0,1-11.67.34c-3.83-1.26-7.22-4.32-8.24-8.11a13.43,13.43,0,0,1,.67-8"/><path class="cls-3" d="M108,45.21c-4.11-2.49-9.22-4.51-13.47-2.71a9.41,9.41,0,0,0-3.43,2.55,12.14,12.14,0,0,0-2,12.05,13.87,13.87,0,0,0,9.69,8.42,8.46,8.46,0,0,0,4.21,0c2.67-.78,4.32-3.25,6.49-4.91"/><path class="cls-3" d="M125.83,75.46c.81,2.32,1.6,4.94.51,7.15A7.32,7.32,0,0,1,124,85.16a17.84,17.84,0,0,1-9.2,3.39,5.87,5.87,0,0,1-3.44-.56c-1.92-1.13-2.32-3.69-2.51-5.91"/><path class="cls-3" d="M94,45.64l2.16,1"/><path class="cls-3" d="M90.56,52.47l4,1"/><path class="cls-3" d="M93.7,62.16l2.66-1"/><path class="cls-3" d="M13.43,27.15a14.15,14.15,0,0,0,2.87,3.16"/><path class="cls-3" d="M6,37a13,13,0,0,0,5.84.72"/><path class="cls-3" d="M7.75,47.31A14.79,14.79,0,0,1,13.45,46"/><line class="cls-4" x1="127.45" y1="37.49" x2="127.45" y2="40.49"/></g></g></svg>