<svg xmlns="http://www.w3.org/2000/svg" xmlns:xlink="http://www.w3.org/1999/xlink" viewBox="0 0 164.63 173.02"><defs><style>.cls-1,.cls-5{fill:none;}.cls-2{fill:#3ef5f9;}.cls-2,.cls-4,.cls-5{stroke:#000;stroke-miterlimit:10;stroke-width:5px;}.cls-3{clip-path:url(#clip-path);}.cls-4{fill:#65ce78;}</style><clipPath id="clip-path" transform="translate(12.52 9.68)"><circle class="cls-1" cx="71" cy="69" r="67"/></clipPath></defs><g id="레이어_2" data-name="레이어 2"><g id="레이어_1-2" data-name="레이어 1"><circle class="cls-2" cx="82.02" cy="79.18" r="67"/><g class="cls-3"><path class="cls-4" d="M56-7s17,36,0,44S29,53,33,60,29,81,20,79s-29-3-30-7S20-3,20-3Z" transform="translate(12.52 9.68)"/><path class="cls-4" d="M132,18c-12,6-25,23-35,24s-18-2-20,5-7,2-1,13-2,14,9,17,18,4,22-3,0-23,13-11,29,5,29,5Z" transform="translate(12.52 9.68)"/><path class="cls-4" d="M37,133s1-28,16-21,13-3,20-9,10-10,19-7-7,13,10,6,10-29,23-17,19-8,14,16-45,56-49,59-46-3-46-3Z" transform="translate(12.52 9.68)"/></g><circle class="cls-5" cx="82.02" cy="79.18" r="67"/></g></g></svg>