<svg xmlns="http://www.w3.org/2000/svg" viewBox="0 0 395.92 376.78"><defs><style>.cls-1{fill:#e56d32;}.cls-2{fill:none;}.cls-2,.cls-3,.cls-5{stroke:#000;stroke-linecap:round;stroke-linejoin:round;stroke-width:5px;}.cls-3{fill:#0a0a0a;}.cls-4,.cls-5{fill:#fff;}.cls-6{fill:#a0d8e0;}</style></defs><g id="레이어_2" data-name="레이어 2"><g id="레이어_1-2" data-name="레이어 1"><path class="cls-1" d="M50.45,41.4A50.74,50.74,0,0,1,83.31,117c-8.16,13.65-22.11,22.61-35.56,31.09-8.49,5.34-19,10.86-28,6.55-5.48-2.6-8.84-8.21-11.31-13.74C-.24,121.59-1.7,98.67,6.6,79.17S33.69,37.79,50.45,41.4Z"/><path class="cls-1" d="M108,36.4c1.86,28.22,15.84,31.79,16.19,51.46.54,30.52-23.37,55.65-47.65,74.14-9.24,7-19,13.87-25.51,23.45s-9.23,22.83-3.28,32.8,22.27,13,29.29,3.77c4.23-5.57,4.79-14.32,11.12-17.31,5.58-2.63,11.92,1,17.24,4.2a121.61,121.61,0,0,0,38.8,14.78c12.37,2.41,27.66,1.63,34.26-9.1,6.44-10.48.81-23.85-3.91-35.2a213.8,213.8,0,0,1-14.91-57.55c-1.39-12.25-1.1-26.27,7.84-34.77,7.92-7.54,19.9-8.15,30.59-10.49s22.57-9.14,22.78-20.07c.1-5.22-2.62-10.07-5.74-14.25-9.51-12.68-23.21-21.44-36.61-29.92C172,8.18,165.24,4,157.7,2S141.52.7,135.46,5.6c-7.26,5.87-10,15.21-18.64,18.79C114.07,25.53,107.69,31.05,108,36.4Z"/><path class="cls-1" d="M249.15,48.24c-2.58,16.58-16.11,28.85-26.5,42-28.71,36.42-35.42,88.91-16.8,131.37,1.23,2.81,2.61,5.65,4.91,7.68,2.57,2.29,6,3.32,9.45,3.76,17.93,2.33,36.32-12.11,38.31-30.08,1-9.09-1.64-18.13-4.09-26.94-5.42-19.57-10-39.93-7.25-60,2.61-19.38,11.9-38.35,8.72-57.64-.63-3.8-2.25-8.08-5.94-9.2S242.12,53.52,249.15,48.24Z"/><path class="cls-1" d="M312.61,114.68c-10.68,1.19-19.06,10.86-21.28,21.38s.71,21.51,5.38,31.19a90.17,90.17,0,0,0,44,42.69c3,1.32,6.24,2.5,9.38,1.69,2.78-.72,4.93-2.86,6.92-4.92l22.85-23.49c3.77-3.88,7.64-7.91,9.6-12.95,3.43-8.84.35-18.75-3-27.63-3.8-10.15-8-20.36-14.95-28.66s-17.13-14.55-27.95-14.31c-9.11.2-17.46,4.82-25.38,9.32C311.32,112.91,304.41,116.83,312.61,114.68Z"/><path class="cls-2" d="M289.29,121.36c-17.45-24.22-37.8-46.78-62.52-64.31s-54.05-29.9-85.15-32.53c-20-1.69-40.3.63-59.84,5.73-20.52,5.35-40.69,14-56.06,28.32S.39,93.33,2.88,113.2C4.49,126,11,137.66,18.72,148.08c15.89,21.43,37.17,38.79,60.3,53.06,15.83,9.77,32.86,18.27,51.45,22.13,24.79,5.15,51.27,1.72,75.61-6.59s46.77-21.32,68.06-35.54c5.7-3.8,12-7.89,18.78-7.5a20.93,20.93,0,0,1,10.6,4.08c11.64,8.1,18,23,31.8,27.25,12.43,3.84,26.17-2.6,36.65-10.6,9.24-7.06,17.64-16,20.42-26.88,4.24-16.52-5.32-32.73-15.25-46.37-8.72-12-20.74-24.77-36.26-23.33C321.74,99.56,307.46,122.61,289.29,121.36Z"/><path class="cls-2" d="M124.63,17.83c-.6-5,3.39-9.87,8.21-12.18S143.17,3,148.49,2.72c7.95-.44,16.63-.67,22.83,3.86,3.05,2.22,5.16,5.37,7.78,8,8.11,8.23,20.43,11.19,32.16,13.48s24.06,4.5,33.12,11.78,13.12,21.52,5.19,30.43"/><path class="cls-2" d="M197.47,225.37c9,5.86,19.89,9.59,31,8.77s22.19-6.68,27.48-16.14c3.73-6.67,4.36-14.48,3.61-21.87"/><path class="cls-2" d="M105.2,111.34c12.68-3.88,27.67-5.83,37.84,1.83a26.09,26.09,0,0,1,7.44,9.13c5.26,10.41,4.22,23.64-2.65,33.58a38.35,38.35,0,0,1-31.58,16A23.31,23.31,0,0,1,105,169.1c-6.64-3.88-9.37-11.59-14-17.5"/><path class="cls-3" d="M50.79,62.46c4.7-1.12,9.47-3.4,14.1-2.33,5.66,1.29,8.82,7.7,7.33,13.15S65.5,82.89,59.8,84.41C55,85.68,49.5,85.17,46,82a10.1,10.1,0,0,1-2.88-10C44.11,68.38,46.27,63.54,50.79,62.46Z"/><path class="cls-4" d="M54,66a18.57,18.57,0,0,1,5.41-1.57c1.51,2.07.36,5.24-1.85,6.77-1.68,1.15-4.27,1.46-5.53,0a3.27,3.27,0,0,1,.16-4C53.07,66,54.52,65.31,54,66Z"/><path class="cls-4" d="M62.88,70.72A12.26,12.26,0,0,1,67,72.6a2.22,2.22,0,0,1,.83.89,1.92,1.92,0,0,1-.07,1.31,4.33,4.33,0,0,1-4.08,2.8,3.35,3.35,0,0,1-3.27-3.27C60.51,72.64,62.38,71.13,62.88,70.72Z"/><path class="cls-5" d="M48.44,75.93a13.06,13.06,0,0,1,4.9-1c1.65.11,3.34,1,3.75,2.55.45,1.67-.81,3.49-2.47,4.28a5,5,0,0,1-5.75-.92A4.91,4.91,0,0,1,48.44,75.93Z"/><path class="cls-2" d="M37.28,180.2c-3.72,5.66-7.61,12.14-6.17,18.75a20.32,20.32,0,0,0,4.6,8.44A49.33,49.33,0,0,0,58,222.62c3.09,1,6.45,1.74,9.57.83,5.9-1.72,8.68-8.29,10.7-14.09"/><path class="cls-2" d="M142.56,122l-6.44,1.21"/><path class="cls-2" d="M148.2,133.25l-10.47,1.61"/><path class="cls-2" d="M147,142.52H135.71"/><path class="cls-2" d="M142.56,153.41l-11.28-.85"/><path class="cls-2" d="M132.09,166.29l-6.45-4.43"/><path class="cls-2" d="M363.37,115.55,355.74,122"/><path class="cls-2" d="M370.18,126.78a38.88,38.88,0,0,1-9.82,6.52"/><path class="cls-2" d="M375,142.13l-10.47-.8"/><path class="cls-2" d="M383.49,158.21a35.62,35.62,0,0,1-16.11-2"/><path class="cls-2" d="M382.69,172.7l-16.34-3.93"/><path class="cls-2" d="M371.76,184.47a40.24,40.24,0,0,0-14.34-7.32"/><path class="cls-2" d="M358.93,196.46A67.7,67.7,0,0,1,344.76,191"/><path class="cls-2" d="M250.18,218.18,243,214.46"/><path class="cls-2" d="M242.88,223.1l-6-3.23"/><path class="cls-2" d="M230,230.35l-4.43-7.66"/><path class="cls-2" d="M63.19,214.23a42.33,42.33,0,0,0,2.55-8.95C64.86,205.29,64.07,206.11,63.19,214.23Z"/><path class="cls-2" d="M57.55,212.62v-8.86"/><path class="cls-2" d="M43.38,204a19.43,19.43,0,0,0,8.37-8.62"/><path class="cls-2" d="M247.72,56.7l-5.64,1.21"/><path class="cls-2" d="M240.86,49.4l-7.25.8"/><path class="cls-2" d="M232,40.59l-4,4"/><path class="cls-2" d="M149.78,8a17.1,17.1,0,0,1-.25,6.87"/><path class="cls-2" d="M137.73,10.77l2.82,6.05"/><path class="cls-2" d="M160.29,11.58l-1.61,6"/><path class="cls-5" d="M171.86,237.09a140.18,140.18,0,0,0-18.12,35.84c-1.36,4-2.55,8.25-2.15,12.48.53,5.56,3.7,10.47,6.92,15A263.31,263.31,0,0,0,193,340.09c1.54,1.45,3.25,3.49,2.4,5.44-.53,1.21-1.87,1.81-3.08,2.34-8.46,3.68-17.3,10.36-17.25,19.59a5.27,5.27,0,0,0,1.18,3.68,5.41,5.41,0,0,0,3.3,1.33c7.63.95,14.87-3.21,21.43-7.22,7.69-4.7,16.37-11.23,15.72-20.2-.44-6.12-5.2-10.9-9.57-15.2q-13.82-13.56-26.25-28.44c-3.47-4.16-7-8.56-8.32-13.8-2.41-9.23,2.18-18.71,6.75-27.1,2.8-5.12,5.73-10.83,4.43-16.52S174,234.05,171.86,237.09Z"/><path class="cls-6" d="M70.22,78.28a9.59,9.59,0,0,0-5.37.45c-2.37.83-4.85,1.77-6.45,3.7a11.6,11.6,0,0,0-2.13,4.79A7.28,7.28,0,0,0,56,90c.41,2.71,3.28,4.29,5.92,5a15.7,15.7,0,0,0,7.45.46,8.84,8.84,0,0,0,6-4.17,9.38,9.38,0,0,0,1-3.32,9.68,9.68,0,0,0-1.06-6c-1-1.79-3-3.53-5.1-3.64"/><path d="M70.82,76.11a13.07,13.07,0,0,0-7.46.77,15.9,15.9,0,0,0-6.13,3.5,13.13,13.13,0,0,0-3.17,6.41,7.56,7.56,0,0,0,1.34,6.9c2.93,3.54,8.94,4.68,13.26,4.14,4.9-.62,9-3.91,9.84-8.93a12,12,0,0,0-1.39-8.37A9.21,9.21,0,0,0,70.22,76,2.27,2.27,0,0,0,68,78.28a2.31,2.31,0,0,0,2.25,2.25,4.65,4.65,0,0,1,3,2.27,7.41,7.41,0,0,1,1,4.81,6.39,6.39,0,0,1-5.56,5.7,12.85,12.85,0,0,1-9.09-1.86,2.72,2.72,0,0,1-1.23-3A10.42,10.42,0,0,1,60,84a9.32,9.32,0,0,1,4.27-2.69c1.71-.64,3.53-1.29,5.36-.88a2.3,2.3,0,0,0,2.77-1.57,2.27,2.27,0,0,0-1.57-2.77Z"/><path class="cls-6" d="M80.15,117.59a7,7,0,0,0-3.93.33,10.11,10.11,0,0,0-4.72,2.71,8.41,8.41,0,0,0-1.56,3.5,5.27,5.27,0,0,0-.18,2c.3,2,2.4,3.13,4.33,3.67a11.59,11.59,0,0,0,5.45.34,6.47,6.47,0,0,0,4.39-3.06,6.8,6.8,0,0,0,.73-2.42,7.07,7.07,0,0,0-.78-4.41,5.11,5.11,0,0,0-3.73-2.67"/><path d="M80.75,115.42A10.12,10.12,0,0,0,75,116a12.5,12.5,0,0,0-4.76,2.72,10.19,10.19,0,0,0-2.47,5,6.19,6.19,0,0,0,1.13,5.63,9,9,0,0,0,4.24,2.57,13.87,13.87,0,0,0,5.89.64c3.85-.5,7.15-3,7.79-7a9.46,9.46,0,0,0-1.08-6.59,7.34,7.34,0,0,0-5.56-3.59,2.25,2.25,0,0,0-2.25,2.25,2.31,2.31,0,0,0,2.25,2.25c-.52,0,.53.18.13,0a3.67,3.67,0,0,1,.79.47c-.21-.16.27.28.33.34s.35.39.2.21a3.74,3.74,0,0,0,.23.32,4.65,4.65,0,0,1,.6,3.21c0-.25-.08.45-.1.54a6,6,0,0,1-.24.82l-.33.56c-.23.37-.11.15,0,.07a5.11,5.11,0,0,1-.45.48l-.25.22c-.28.23.24-.16-.07,0s-.44.28-.67.4l-.4.19c.32-.13,0,0-.08,0-.33.09-.65.19-1,.26a9,9,0,0,1-3.72-.27,7.76,7.76,0,0,1-.79-.22c-.08,0-.83-.3-.43-.13-.25-.11-.5-.24-.74-.37s-.7-.47-.38-.22a4.85,4.85,0,0,1-.57-.54c.29.31-.12-.2-.19-.33.24.46,0-.46,0,0,0-.13,0-.25,0-.38s0-.17,0,0l0-.25a13.67,13.67,0,0,1,.52-1.9s.13-.35.06-.18.12-.25.14-.28.15-.28.23-.42.3-.45.14-.23a4.09,4.09,0,0,1,.72-.72c.29-.24-.22.14.09-.06l.48-.31c.27-.15.54-.29.82-.42s.2-.1.1-.06l.65-.25a14.73,14.73,0,0,1,2-.62,2.59,2.59,0,0,1,.77-.09,3.1,3.1,0,0,1,.88.07,2.25,2.25,0,0,0,1.2-4.34Z"/><path class="cls-6" d="M104.22,181.28a9.59,9.59,0,0,0-5.37.45c-2.37.83-4.85,1.77-6.45,3.7a11.6,11.6,0,0,0-2.13,4.79A7.28,7.28,0,0,0,90,193c.41,2.71,3.28,4.29,5.92,5a15.7,15.7,0,0,0,7.45.46,8.84,8.84,0,0,0,6-4.17,9.38,9.38,0,0,0,1-3.32,9.68,9.68,0,0,0-1.06-6c-1-1.79-3-3.53-5.1-3.64"/><path d="M104.82,179.11a13.07,13.07,0,0,0-7.46.77,15.9,15.9,0,0,0-6.13,3.5,13.13,13.13,0,0,0-3.17,6.41,7.56,7.56,0,0,0,1.34,6.9c2.93,3.54,8.94,4.68,13.26,4.14,4.9-.62,9-3.91,9.84-8.93a12,12,0,0,0-1.39-8.37,9.21,9.21,0,0,0-6.89-4.5,2.27,2.27,0,0,0-2.25,2.25,2.31,2.31,0,0,0,2.25,2.25,4.65,4.65,0,0,1,3,2.27,7.41,7.41,0,0,1,1,4.81,6.39,6.39,0,0,1-5.56,5.7,12.85,12.85,0,0,1-9.09-1.86,2.72,2.72,0,0,1-1.23-2.95A10.42,10.42,0,0,1,94,187a9.32,9.32,0,0,1,4.27-2.69c1.71-.64,3.53-1.29,5.36-.88a2.3,2.3,0,0,0,2.77-1.57,2.27,2.27,0,0,0-1.57-2.77Z"/><path class="cls-5" d="M132.45,237.75c-1.19,34.62-2.87,67-5.51,102.4A49,49,0,0,0,99.75,353c-2.9,2.74-5.54,6-6.42,9.88s.47,8.49,4,10.41c4.77,2.63,10.46-.59,15.41-2.86a44.38,44.38,0,0,1,20.94-3.92c3.71.22,8,.71,10.6-1.92,1.93-1.93,2.23-4.91,2.41-7.64q3.74-55.06,7.48-110.13c.14-2.08.25-4.31-.87-6.07s-2.83-2.48-4.55-3.28C143.07,234.86,132.65,232.1,132.45,237.75Z"/></g></g></svg>