<svg xmlns="http://www.w3.org/2000/svg" viewBox="0 0 414.91 297.52"><defs><style>.cls-1{fill:#fff;}.cls-1,.cls-2,.cls-3{stroke:#000;stroke-linecap:round;stroke-linejoin:round;stroke-width:5px;}.cls-2{fill:#a4d0ff;}.cls-3{fill:none;}</style></defs><g id="레이어_2" data-name="레이어 2"><g id="레이어_1-2" data-name="레이어 1"><path class="cls-1" d="M8.27,54.54A1288.8,1288.8,0,0,0,8,295l359.4-8.7c6.89-.17,14.38-.55,19.62-4.94,4.76-4,6.49-10.37,7.89-16.35A665.15,665.15,0,0,0,404.23,9.45C287,12.42,168.5-9.06,53.08,11.54,41.09,13.68,28.7,16.48,19.22,24S9.25,44.19,8.27,54.54Z"/><path class="cls-1" d="M9.24,35.66,164.39,168.31c12.89,11,26,22.28,35,36.55C261,146.42,345,115.13,408.53,58.69"/><path class="cls-2" d="M174.67,203.7s-16-39,22-54,62,41,35,56c0,0,12,23,6,24s-69-3-69-3Z"/><line class="cls-3" x1="186.67" y1="215.7" x2="184.67" y2="227.7"/><line class="cls-3" x1="200.67" y1="218.7" x2="202.67" y2="228.7"/><line class="cls-3" x1="218.67" y1="220.7" x2="219.67" y2="228.7"/></g></g></svg>