<svg xmlns="http://www.w3.org/2000/svg" viewBox="0 0 161.64 97.23"><defs><style>.cls-1{fill:#1249fb;}.cls-2{fill:#fdfe02;}.cls-3,.cls-4,.cls-5,.cls-6{stroke:#000;stroke-width:5px;}.cls-3,.cls-5,.cls-6{stroke-linecap:round;stroke-linejoin:round;}.cls-4,.cls-6{fill:none;}.cls-4{stroke-miterlimit:10;}.cls-5{fill:#f6ff39;}</style></defs><g id="레이어_2" data-name="레이어 2"><g id="레이어_1-2" data-name="레이어 1"><path class="cls-1" d="M51,27.13s48-43.79,95,3.12-57.36,64.61-83.4,41.3S35.38,50.85,41.71,40.92,51,27.13,51,27.13Z"/><polygon class="cls-2" points="43.21 40.49 4.28 30.92 6.22 67.42 43.95 51.13 43.21 40.49"/><path class="cls-3" d="M59.26,19.93c26.4-32.6,46.6-9.47,46.6-9.47S86,8.88,79.91,12.1,59.26,19.93,59.26,19.93Z"/><path class="cls-4" d="M41.61,42.26S65.85-8.6,129.12,18.76s9.71,63.33-8.78,63.29-39.93,11.53-78-29.15L4.62,69.19,2.68,32.69Z"/><polyline class="cls-5" points="124.28 48.09 110.84 38.59 106.23 65.01 118.73 58.79"/><path class="cls-6" d="M110.6,24.16S82.16,7.19,54,40"/><path class="cls-3" d="M121.05,84.75s-7.06,16.83-19.42,6.77-2.4-5.25-2.4-5.25Z"/><line class="cls-6" x1="141.14" y1="38.73" x2="141.14" y2="43.73"/></g></g></svg>